# xmcd
# Copyright (C) 1995-1998 Ti Kan
#
# Track frame offsets:
#       150
#       16906
#       33046
#       44998
#       63955
#       77707
#       93334
#       105096
#       127096
#       144241
#       159313
#
# Disc length: 2383 seconds
#
# Revision: 0
# Processed by: cddbd v1.5.2PL0 Copyright (c) Steve Scherf et al.
# Submitted via: CD-Import v1.0
#
DISCID=80094d0b
DTITLE=Lee Everton - Sing A Song For Me
DYEAR=1900
DGENRE=
TTITLE0=Don't Make It Too Hard
TTITLE1=A Little Light
TTITLE2=If Not For You
TTITLE3=I Want To Hold On
TTITLE4=Cry For Me
TTITLE5=I Got To Keep On Moving
TTITLE6=Anywhere I Lay My Head
TTITLE7=You've Still Got A Hold On Me
TTITLE8=I Need You Tonight
TTITLE9=Count On Me
TTITLE10=Lullaby
EXTD=
EXTT0=
EXTT1=
EXTT2=
EXTT3=
EXTT4=
EXTT5=
EXTT6=
EXTT7=
EXTT8=
EXTT9=
EXTT10=
PLAYORDER=
